REM DIRINDEX 1\2\3,1\2\4,1\2\5,1\2\6
REM DIRNAME cjc157,folder01,folder02,folder03,folder04,folder05
TITLE ""
FILE "110 110.mp3" MP3
  TRACK 01 AUDIO
    TITLE "0:"
    INDEX 01 00:00:00
  TRACK 02 AUDIO
    TITLE "3:cjc157_4075"
    INDEX 01 00:00:11
  TRACK 03 AUDIO
    TITLE "0:"
    INDEX 01 00:01:34
  TRACK 04 AUDIO
    TITLE "4:cjc157_4076"
    INDEX 01 00:02:02
  TRACK 05 AUDIO
    TITLE "0:"
    INDEX 01 00:03:15
  TRACK 06 AUDIO
    TITLE "5:cjc157_4077"
    INDEX 01 00:03:63
  TRACK 07 AUDIO
    TITLE "0:"
    INDEX 01 00:06:45
  TRACK 08 AUDIO
    TITLE "3:cjc157_4078"
    INDEX 01 00:07:17
  TRACK 09 AUDIO
    TITLE "0:"
    INDEX 01 00:08:24
  TRACK 10 AUDIO
    TITLE "4:cjc157_4079"
    INDEX 01 00:08:72
  TRACK 11 AUDIO
    TITLE "0:"
    INDEX 01 00:10:02
  TRACK 12 AUDIO
    TITLE "5:cjc157_4080"
    INDEX 01 00:10:45
  TRACK 13 AUDIO
    TITLE "0:"
    INDEX 01 00:13:14
  TRACK 14 AUDIO
    TITLE "3:cjc157_4081"
    INDEX 01 00:13:63
  TRACK 15 AUDIO
    TITLE "0:"
    INDEX 01 00:15:42
  TRACK 16 AUDIO
    TITLE "4:cjc157_4082"
    INDEX 01 00:16:14
  TRACK 17 AUDIO
    TITLE "0:"
    INDEX 01 00:17:25
  TRACK 18 AUDIO
    TITLE "5:cjc157_4083"
    INDEX 01 00:18:03
  TRACK 19 AUDIO
    TITLE "0:"
    INDEX 01 00:19:69
  TRACK 20 AUDIO
    TITLE "3:cjc157_4084"
    INDEX 01 00:20:39
  TRACK 21 AUDIO
    TITLE "0:"
    INDEX 01 00:21:64
  TRACK 22 AUDIO
    TITLE "4:cjc157_4085"
    INDEX 01 00:22:36
  TRACK 23 AUDIO
    TITLE "0:"
    INDEX 01 00:23:48
  TRACK 24 AUDIO
    TITLE "5:cjc157_4086"
    INDEX 01 00:24:24
  TRACK 25 AUDIO
    TITLE "0:"
    INDEX 01 00:26:09
  TRACK 26 AUDIO
    TITLE "5:cjc157_4087"
    INDEX 01 00:26:50
  TRACK 27 AUDIO
    TITLE "0:"
    INDEX 01 00:29:33
  TRACK 28 AUDIO
    TITLE "3:cjc157_4088"
    INDEX 01 00:30:01
  TRACK 29 AUDIO
    TITLE "0:"
    INDEX 01 00:31:14
  TRACK 30 AUDIO
    TITLE "4:cjc157_4089"
    INDEX 01 00:31:63
  TRACK 31 AUDIO
    TITLE "0:"
    INDEX 01 00:32:72
  TRACK 32 AUDIO
    TITLE "5:cjc157_4090"
    INDEX 01 00:33:42
  TRACK 33 AUDIO
    TITLE "0:"
    INDEX 01 00:36:15
  TRACK 34 AUDIO
    TITLE "5:cjc157_4091"
    INDEX 01 00:36:58
  TRACK 35 AUDIO
    TITLE "0:"
    INDEX 01 00:39:41
  TRACK 36 AUDIO
    TITLE "3:cjc157_4092"
    INDEX 01 00:40:17
  TRACK 37 AUDIO
    TITLE "0:"
    INDEX 01 00:41:63
  TRACK 38 AUDIO
    TITLE "4:cjc157_4093"
    INDEX 01 00:42:39
  TRACK 39 AUDIO
    TITLE "0:"
    INDEX 01 00:43:42
  TRACK 40 AUDIO
    TITLE "5:cjc157_4094"
    INDEX 01 00:44:16
  TRACK 41 AUDIO
    TITLE "0:"
    INDEX 01 00:45:69
  TRACK 42 AUDIO
    TITLE "5:cjc157_4095"
    INDEX 01 00:46:47
  TRACK 43 AUDIO
    TITLE "0:"
    INDEX 01 00:48:42
  TRACK 44 AUDIO
    TITLE "3:cjc157_4096"
    INDEX 01 00:49:12
  TRACK 45 AUDIO
    TITLE "0:"
    INDEX 01 00:50:42
  TRACK 46 AUDIO
    TITLE "4:cjc157_4097"
    INDEX 01 00:51:09
  TRACK 47 AUDIO
    TITLE "0:"
    INDEX 01 00:52:34
  TRACK 48 AUDIO
    TITLE "5:cjc157_4098"
    INDEX 01 00:53:02
  TRACK 49 AUDIO
    TITLE "0:"
    INDEX 01 00:57:01
  TRACK 50 AUDIO
    TITLE "3:cjc157_4099"
    INDEX 01 00:57:50
  TRACK 51 AUDIO
    TITLE "0:"
    INDEX 01 00:58:66
  TRACK 52 AUDIO
    TITLE "4:cjc157_4100"
    INDEX 01 00:59:36
  TRACK 53 AUDIO
    TITLE "0:"
    INDEX 01 01:00:55
  TRACK 54 AUDIO
    TITLE "5:cjc157_4101"
    INDEX 01 01:01:33
  TRACK 55 AUDIO
    TITLE "0:"
    INDEX 01 01:03:39
  TRACK 56 AUDIO
    TITLE "5:cjc157_4102"
    INDEX 01 01:04:11
  TRACK 57 AUDIO
    TITLE "0:"
    INDEX 01 01:07:17
  TRACK 58 AUDIO
    TITLE "3:cjc157_4103"
    INDEX 01 01:07:63
  TRACK 59 AUDIO
    TITLE "0:"
    INDEX 01 01:09:16
  TRACK 60 AUDIO
    TITLE "4:cjc157_4104"
    INDEX 01 01:09:61
  TRACK 61 AUDIO
    TITLE "0:"
    INDEX 01 01:10:71
  TRACK 62 AUDIO
    TITLE "5:cjc157_4105"
    INDEX 01 01:11:47
  TRACK 63 AUDIO
    TITLE "0:"
    INDEX 01 01:14:25
  TRACK 64 AUDIO
    TITLE "3:cjc157_4106"
    INDEX 01 01:14:74
  TRACK 65 AUDIO
    TITLE "0:"
    INDEX 01 01:16:28
  TRACK 66 AUDIO
    TITLE "4:cjc157_4107"
    INDEX 01 01:16:69
  TRACK 67 AUDIO
    TITLE "0:"
    INDEX 01 01:18:09
  TRACK 68 AUDIO
    TITLE "5:cjc157_4108"
    INDEX 01 01:18:58
  TRACK 69 AUDIO
    TITLE "0:"
    INDEX 01 01:20:49
  TRACK 70 AUDIO
    TITLE "5:cjc157_4109"
    INDEX 01 01:21:23
  TRACK 71 AUDIO
    TITLE "0:"
    INDEX 01 01:23:32
  TRACK 72 AUDIO
    TITLE "5:cjc157_4110"
    INDEX 01 01:24:02
  TRACK 73 AUDIO
    TITLE "0:"
    INDEX 01 01:27:18
